<?xml version="1.0" encoding="UTF-8" standalone="no"?>
<svg
   xmlns:dc="http://purl.org/dc/elements/1.1/"
   xmlns:cc="http://creativecommons.org/ns#"
   xmlns:rdf="http://www.w3.org/1999/02/22-rdf-syntax-ns#"
   xmlns:svg="http://www.w3.org/2000/svg"
   xmlns="http://www.w3.org/2000/svg"
   id="svg28"
   xml:space="preserve"
   enable-background="new 0 0 960 960"
   viewBox="0 0 280.75699 60.502998"
   height="60.502998"
   width="280.75699"
   y="0px"
   x="0px"
   version="1.1"><metadata
   id="metadata34"><rdf:RDF><cc:Work
       rdf:about=""><dc:format>image/svg+xml</dc:format><dc:type
         rdf:resource="http://purl.org/dc/dcmitype/StillImage" /><dc:title></dc:title></cc:Work></rdf:RDF></metadata><defs
   id="defs32" />
<g
   transform="translate(-163.541,-432.766)"
   style="display:none"
   display="none"
   id="Слой_1">
	<text
   style="display:inline"
   id="text6"
   display="inline"
   transform="translate(196.7236,433.7661)"><tspan
     style="font-size:72px;font-family:FranklinGothic-Demi;fill:#ffba00"
     id="tspan2"
     font-size="72px"
     y="0"
     x="0">L</tspan><tspan
     style="font-size:72px;font-family:FranklinGothic-Demi;fill:#ffffff"
     id="tspan4"
     font-size="72px"
     y="0"
     x="36.245998">ogotype</tspan></text>

</g>
<g
   transform="translate(-163.541,-432.766)"
   id="Слой_2">
	<g
   id="g25">
		<path
   style="fill:#ffba00"
   id="path9"
   d="m 174.931,471.262 h 19.09 v 9.492 h -30.48 v -47.988 h 11.391 v 38.496 z" />
		<path
   style="fill:#ffffff"
   id="path11"
   d="m 214.007,444.508 c 5.409,0 9.628,1.77 12.661,5.309 3.032,3.539 4.548,7.969 4.548,13.289 0,5.25 -1.575,9.627 -4.724,13.131 -3.149,3.504 -7.334,5.255 -12.555,5.255 -5.058,0 -9.102,-1.734 -12.134,-5.203 -3.032,-3.468 -4.548,-7.922 -4.548,-13.359 0,-3.773 0.685,-6.979 2.055,-9.615 1.369,-2.637 3.248,-4.764 5.636,-6.381 2.388,-1.617 5.408,-2.426 9.061,-2.426 z m 0.281,6.856 c -1.986,0 -3.482,0.768 -4.487,2.303 -1.005,1.535 -1.507,4.588 -1.507,9.158 0,4.196 0.479,7.207 1.437,9.035 0.958,1.828 2.454,2.742 4.487,2.742 1.776,0 3.213,-0.779 4.312,-2.338 1.098,-1.559 1.647,-4.529 1.647,-8.912 0,-4.664 -0.485,-7.828 -1.455,-9.492 -0.97,-1.664 -2.448,-2.496 -4.434,-2.496 z" />
		<path
   style="fill:#ffffff"
   id="path13"
   d="m 273.298,446.055 c -1.102,-0.234 -2.027,-0.352 -2.777,-0.352 -2.32,0 -3.68,1.032 -4.078,3.094 1.898,1.992 2.848,4.242 2.848,6.75 0,3.352 -1.401,6.024 -4.201,8.016 -2.801,1.992 -6.838,2.988 -12.111,2.988 -1.875,0 -3.704,-0.177 -5.484,-0.532 -1.195,0.704 -1.793,1.607 -1.793,2.709 0,1.219 0.504,2.028 1.512,2.427 1.007,0.399 3.433,0.692 7.277,0.879 5.461,0.281 9.223,0.621 11.285,1.02 2.062,0.399 3.797,1.359 5.203,2.883 1.406,1.524 2.109,3.422 2.109,5.695 0,3.258 -1.506,6.012 -4.518,8.262 -3.012,2.25 -8.35,3.375 -16.014,3.375 -7.195,0 -12.047,-0.78 -14.555,-2.34 -2.508,-1.561 -3.762,-3.538 -3.762,-5.932 0,-3.168 2.027,-5.303 6.082,-6.406 -3,-1.5 -4.5,-3.609 -4.5,-6.328 0,-3.398 2.367,-6.047 7.102,-7.945 -4.196,-1.732 -6.293,-4.625 -6.293,-8.676 0,-3.302 1.447,-5.983 4.342,-8.044 2.895,-2.061 6.896,-3.091 12.006,-3.091 3.234,0 6.363,0.516 9.387,1.547 0.211,-2.016 0.803,-3.674 1.775,-4.975 0.972,-1.301 3.041,-1.951 6.205,-1.951 1.031,0 2.016,0.094 2.953,0.281 z m -27.387,34.453 c -0.422,0 -0.955,0.281 -1.6,0.843 -0.645,0.563 -0.967,1.242 -0.967,2.039 0,1.594 1.02,2.59 3.059,2.988 2.039,0.398 4.43,0.598 7.172,0.598 3.586,0 6.1,-0.27 7.541,-0.809 1.441,-0.539 2.162,-1.406 2.162,-2.602 0,-0.914 -0.604,-1.617 -1.811,-2.109 -1.208,-0.492 -4.424,-0.738 -9.65,-0.738 l -2.109,0.035 c -1.289,0 -2.157,-0.035 -2.602,-0.105 -0.492,-0.092 -0.891,-0.14 -1.195,-0.14 z m 6.979,-30.34 c -1.799,0 -3.208,0.487 -4.224,1.459 -1.016,0.973 -1.524,2.256 -1.524,3.85 0,3.609 1.928,5.414 5.784,5.414 1.869,0 3.335,-0.527 4.398,-1.582 1.063,-1.055 1.595,-2.332 1.595,-3.832 0,-1.406 -0.502,-2.642 -1.507,-3.709 -1.006,-1.066 -2.513,-1.6 -4.522,-1.6 z" />
		<path
   style="fill:#ffffff"
   id="path15"
   d="m 292.37,444.508 c 5.409,0 9.628,1.77 12.661,5.309 3.032,3.539 4.548,7.969 4.548,13.289 0,5.25 -1.575,9.627 -4.724,13.131 -3.149,3.504 -7.334,5.255 -12.555,5.255 -5.058,0 -9.102,-1.734 -12.134,-5.203 -3.032,-3.468 -4.548,-7.922 -4.548,-13.359 0,-3.773 0.685,-6.979 2.055,-9.615 1.369,-2.637 3.248,-4.764 5.636,-6.381 2.389,-1.617 5.409,-2.426 9.061,-2.426 z m 0.281,6.856 c -1.986,0 -3.482,0.768 -4.487,2.303 -1.005,1.535 -1.507,4.588 -1.507,9.158 0,4.196 0.479,7.207 1.437,9.035 0.958,1.828 2.454,2.742 4.487,2.742 1.776,0 3.213,-0.779 4.312,-2.338 1.098,-1.559 1.647,-4.529 1.647,-8.912 0,-4.664 -0.485,-7.828 -1.455,-9.492 -0.97,-1.664 -2.447,-2.496 -4.434,-2.496 z" />
		<path
   style="fill:#ffffff"
   id="path17"
   d="m 328.001,453.403 v 15.012 c 0,1.875 0.28,3.129 0.84,3.762 0.561,0.633 1.879,0.949 3.956,0.949 0.957,0 2.065,-0.047 3.326,-0.141 v 7.77 c -3.047,0.515 -5.238,0.773 -6.574,0.773 -4.359,0 -7.453,-0.837 -9.281,-2.513 -1.828,-1.675 -2.742,-4.705 -2.742,-9.088 v -16.523 h -5.625 v -8.156 h 6.223 l 0.844,-10.477 9.035,-0.703 v 11.18 h 7.629 v 8.156 h -7.631 z" />
		<path
   style="fill:#ffffff"
   id="path19"
   d="m 369.028,445.247 -11.134,34.063 c -1.245,3.796 -2.307,6.544 -3.186,8.245 -0.879,1.699 -2.146,3.06 -3.798,4.08 -1.653,1.02 -3.956,1.529 -6.911,1.529 -1.478,0 -3.154,-0.141 -5.029,-0.422 v -8.051 c 1.856,0.328 3.572,0.492 5.146,0.492 2.068,0 3.454,-0.387 4.159,-1.16 0.705,-0.775 1.233,-1.867 1.586,-3.274 L 336.93,445.247 h 11.074 l 6.838,21.129 6.576,-21.129 z" />
		<path
   style="fill:#ffffff"
   id="path21"
   d="m 373.563,492.742 v -47.496 h 9.633 v 5.203 c 1.781,-3.96 4.898,-5.941 9.352,-5.941 3.844,0 6.99,1.542 9.439,4.623 2.449,3.082 3.674,7.564 3.674,13.447 0,6.258 -1.236,10.975 -3.709,14.15 -2.473,3.176 -5.69,4.763 -9.65,4.763 -4.008,0 -6.868,-1.558 -8.578,-4.675 v 15.925 h -10.161 z m 10.161,-27.527 c 0,2.508 0.152,4.242 0.457,5.203 0.304,0.961 0.949,1.823 1.934,2.584 0.984,0.762 2.051,1.143 3.199,1.143 1.429,0 2.707,-0.732 3.832,-2.197 1.125,-1.464 1.688,-4.693 1.688,-9.686 0,-7.008 -1.852,-10.512 -5.555,-10.512 -1.406,0 -2.684,0.621 -3.832,1.863 -1.148,1.243 -1.723,3.352 -1.723,6.328 z" />
		<path
   style="fill:#ffffff"
   id="path23"
   d="m 444.298,464.758 h -22.852 c -0.023,0.633 -0.035,1.184 -0.035,1.652 0,2.531 0.673,4.442 2.021,5.73 1.348,1.289 2.958,1.934 4.834,1.934 3.492,0 5.59,-1.863 6.293,-5.59 l 9.492,0.703 c -2.649,8.204 -8.028,12.304 -16.137,12.304 -3.539,0 -6.545,-0.708 -9.018,-2.126 -2.473,-1.418 -4.512,-3.486 -6.117,-6.205 -1.605,-2.719 -2.408,-5.977 -2.408,-9.773 0,-5.648 1.611,-10.207 4.834,-13.676 3.222,-3.468 7.365,-5.203 12.428,-5.203 4.57,0 8.49,1.612 11.76,4.834 3.27,3.223 4.905,8.362 4.905,15.416 z m -22.887,-6.082 h 12.621 c -0.329,-4.875 -2.333,-7.313 -6.012,-7.313 -3.937,10e-4 -6.14,2.439 -6.609,7.313 z" />
	</g>
</g>
</svg>